<svg width="329" height="54" viewBox="0 0 329 54" fill="none" xmlns="http://www.w3.org/2000/svg">
<path d="M7.43 41.74V4.53H12.63V45.29H20.49C23.33 45.29 28.35 45.29 33.54 45.17V49.25H7.43V41.75V41.74Z" fill="#393D3F"/>
<path d="M43.93 42.92L56.93 7.95C57.4 6.65 57.82 5.65 58.17 4.52H62.78L77.01 43.15C77.78 45.16 78.6 47.34 79.25 49.23H73.76C73.11 47.4 72.4 45.21 71.69 43.15L69.33 36.42H51.37L49.01 43.09L46.88 49.23H41.56C42.27 47.22 43.21 44.92 43.92 42.91L43.93 42.92ZM68.03 32.64L60.35 10.9L52.73 32.64H68.03Z" fill="#393D3F"/>
<path d="M83.46 4.53H89.01C89.48 6.12 90.01 7.72 90.43 9.2L101.77 43.46L112.76 9.2C113.23 7.66 113.76 6.07 114.3 4.53H119.62C119.09 6.12 118.56 7.84 118.08 9.2L105.14 46.77C104.9 47.6 104.55 48.48 104.37 49.25H98.99L85.05 9.2C84.58 7.78 83.93 6.07 83.46 4.53Z" fill="#393D3F"/>
<path d="M126.11 42.92L139.11 7.95C139.58 6.65 140 5.65 140.35 4.52H144.96L159.2 43.15C159.97 45.16 160.79 47.34 161.44 49.23H155.95C155.3 47.4 154.59 45.21 153.88 43.15L151.52 36.42H133.56L131.2 43.09L129.07 49.23H123.75C124.46 47.22 125.4 44.92 126.11 42.91V42.92ZM150.2 32.64L142.52 10.9L134.9 32.64H150.2Z" fill="#393D3F"/>
<path d="M173.84 41.74V4.53H186.78C197 4.53 202.43 8.55 202.43 15.81C202.43 22.43 197.7 26.68 190.2 27.51L205.2 48.83V49.24H199.47L185.35 28.03H179.03V49.24H173.83V41.74H173.84ZM185.47 24.31C193.74 24.31 197.34 21.53 197.34 15.98C197.34 10.43 193.97 8.3 186.12 8.3H179.03V24.31H185.47Z" fill="#393D3F"/>
<path d="M217.49 41.74V4.53H222.69V49.24H217.49V41.74Z" fill="#393D3F"/>
<path d="M236.99 26.79C236.99 13.15 246.15 3.75 260.08 3.75C270.54 3.75 279.34 9.01 281.93 20.23H276.55C274.36 12.14 268.1 7.94 260.01 7.94C249.14 7.94 242.29 15.97 242.29 26.66C242.29 36.7 248.31 45.97 259.89 45.97C269.22 45.97 275.42 39.95 277.08 31.26H282.4C280.27 43.25 271.77 50.16 259.84 50.16C245.37 50.16 236.98 39.65 236.98 26.77L236.99 26.79Z" fill="#393D3F"/>
<path d="M295.88 41.74V4.53H321.1V8.37C315.9 8.31 311.59 8.31 309.05 8.31H301.08V23.96H306.22C309.65 23.96 313.19 23.96 318.15 23.9V27.74C313.19 27.68 309.64 27.68 306.22 27.68H301.08V45.46H309.35C311.89 45.46 316.56 45.46 321.52 45.34V49.24H295.88V41.74Z" fill="#393D3F"/>
</svg>
