<svg width="195" height="32" viewBox="0 0 195 32" fill="none" xmlns="http://www.w3.org/2000/svg">
<path d="M4.14819 24.7349V2.68457H7.22968V26.8386H11.8875C13.5704 26.8386 16.5452 26.8386 19.6208 26.7675V29.1853H4.14819V24.7409V24.7349Z" fill="white"/>
<path d="M25.7779 25.4343L33.4816 4.7113C33.7601 3.94093 34.009 3.34834 34.2164 2.67871H36.9482L45.3808 25.5706C45.8371 26.7617 46.323 28.0535 46.7082 29.1735H43.4549C43.0697 28.0891 42.649 26.7913 42.2282 25.5706L40.8297 21.5824H30.1867L28.7882 25.535L27.526 29.1735H24.3734C24.7942 27.9824 25.3512 26.6195 25.7719 25.4283L25.7779 25.4343ZM40.0593 19.3424L35.5082 6.45945L30.9927 19.3424H40.0593Z" fill="white"/>
<path d="M49.203 2.68457H52.4919C52.7704 3.62679 53.0845 4.57494 53.3334 5.45198L60.0534 25.7542L66.566 5.45198C66.8445 4.53938 67.1586 3.59716 67.4786 2.68457H70.6311C70.3171 3.62679 70.003 4.64605 69.7186 5.45198L62.0504 27.7157C61.9082 28.2075 61.7008 28.729 61.5941 29.1853H58.406L50.1452 5.45198C49.8667 4.6105 49.4815 3.59716 49.203 2.68457Z" fill="white"/>
<path d="M74.4771 25.4343L82.1808 4.7113C82.4594 3.94093 82.7082 3.34834 82.9157 2.67871H85.6475L94.086 25.5706C94.5423 26.7617 95.0282 28.0535 95.4134 29.1735H92.1601C91.7749 28.0891 91.3542 26.7913 90.9334 25.5706L89.5349 21.5824H78.8919L77.4934 25.535L76.2312 29.1735H73.0786C73.4994 27.9824 74.0564 26.6195 74.4771 25.4283V25.4343ZM88.7527 19.3424L84.2016 6.45945L79.686 19.3424H88.7527Z" fill="white"/>
<path d="M102.762 24.7349V2.68457H110.43C116.486 2.68457 119.704 5.06679 119.704 9.36902C119.704 13.292 116.901 15.8105 112.456 16.3023L121.345 28.9364V29.1794H117.95L109.582 16.6105H105.837V29.1794H102.756V24.7349H102.762ZM109.653 14.4061C114.554 14.4061 116.687 12.7586 116.687 9.46975C116.687 6.18087 114.69 4.91864 110.039 4.91864H105.837V14.4061H109.653Z" fill="white"/>
<path d="M128.628 24.7349V2.68457H131.71V29.1794H128.628V24.7349Z" fill="white"/>
<path d="M140.184 15.8755C140.184 7.79254 145.612 2.22217 153.867 2.22217C160.065 2.22217 165.28 5.3392 166.815 11.9881H163.627C162.329 7.19402 158.619 4.70513 153.825 4.70513C147.384 4.70513 143.325 9.46365 143.325 15.7985C143.325 21.7481 146.892 27.2414 153.754 27.2414C159.283 27.2414 162.957 23.674 163.941 18.5244H167.093C165.831 25.6296 160.794 29.7244 153.725 29.7244C145.15 29.7244 140.178 23.4962 140.178 15.8636L140.184 15.8755Z" fill="white"/>
<path d="M175.082 24.7349V2.68457H190.027V4.96013C186.945 4.92457 184.391 4.92457 182.886 4.92457H178.163V14.1986H181.209C183.242 14.1986 185.339 14.1986 188.279 14.1631V16.4386C185.339 16.4031 183.236 16.4031 181.209 16.4031H178.163V26.9394H183.064C184.569 26.9394 187.336 26.9394 190.276 26.8683V29.1794H175.082V24.7349Z" fill="white"/>
</svg>
