<?xml version="1.0" encoding="UTF-8"?>
<svg xmlns="http://www.w3.org/2000/svg" xmlns:xlink="http://www.w3.org/1999/xlink" width="100px" height="100px" viewBox="0 0 100 105" version="1.1">
<g id="surface1">
<path style=" stroke:none;fill-rule:nonzero;fill:rgb(22.352941%,23.921569%,24.705882%);fill-opacity:1;" d="M 6.722656 10.195312 C 10.242188 10.011719 16.195312 9.175781 19.082031 11.5 C 21.984375 13.835938 22.523438 21.621094 22.910156 25.171875 C 29.011719 25.472656 35.1875 25.339844 41.296875 25.335938 C 53.246094 25.328125 65.207031 25.195312 77.15625 25.316406 C 80.167969 25.347656 83.1875 25.074219 86.199219 25.207031 C 88.941406 25.328125 91.59375 25.378906 93.5625 27.554688 C 94.820312 28.949219 94.882812 30.546875 94.777344 32.332031 C 94.449219 37.980469 92.722656 43.808594 91.691406 49.378906 C 90.960938 53.34375 90.691406 57.71875 89.457031 61.546875 C 89.039062 62.839844 88.371094 64.121094 87.335938 65.023438 C 86.421875 65.824219 85.265625 66.214844 84.070312 66.347656 C 81.351562 66.652344 78.523438 66.519531 75.792969 66.507812 C 71.601562 66.484375 67.410156 66.480469 63.214844 66.496094 L 44.28125 66.4375 C 39.710938 66.460938 35.03125 66.722656 30.480469 66.40625 C 31.265625 68.316406 31.289062 69.769531 31.589844 71.738281 C 34.097656 72.285156 39.996094 71.871094 42.839844 71.871094 L 71.363281 71.867188 C 74.269531 71.828125 77.273438 71.65625 80.171875 71.859375 C 83.21875 72.074219 86.0625 73.179688 88.09375 75.535156 C 90.265625 78.046875 90.78125 81.410156 90.535156 84.632812 C 90.308594 87.578125 88.980469 90.121094 86.734375 92.039062 C 84.578125 93.878906 81.691406 95.074219 78.832031 94.832031 C 75.886719 94.582031 72.683594 92.957031 70.78125 90.691406 C 67.851562 87.210938 68.339844 83.027344 68.695312 78.808594 C 68.039062 78.761719 67.382812 78.949219 66.714844 78.949219 C 64.210938 78.933594 61.710938 78.882812 59.207031 78.890625 C 54.339844 78.902344 49.421875 78.695312 44.566406 78.828125 C 44.175781 78.839844 43.875 78.886719 43.527344 79.074219 C 43.5 79.511719 43.652344 79.890625 43.757812 80.3125 C 44.441406 83.003906 43.925781 86.761719 42.492188 89.152344 C 40.863281 91.867188 38.085938 93.730469 35.035156 94.488281 C 32.1875 95.199219 29.3125 94.589844 26.820312 93.082031 C 24.304688 91.554688 22.644531 89.179688 21.953125 86.328125 C 20.75 81.402344 22.453125 78.191406 24.945312 74.09375 C 23.847656 70.566406 23.464844 66.796875 22.847656 63.15625 C 21.917969 57.726562 20.953125 52.300781 19.953125 46.878906 L 16.164062 27.058594 C 15.535156 23.753906 14.523438 20.140625 14.445312 16.78125 C 12.179688 17.109375 8.320312 17.324219 6.210938 16.476562 C 4.867188 15.933594 4.539062 14.890625 4 13.648438 C 4.164062 13.167969 4.332031 12.683594 4.546875 12.222656 C 5.039062 11.164062 5.625 10.589844 6.722656 10.195312 Z M 34.625 32.140625 C 31.210938 32.1875 27.746094 32.34375 24.335938 32.128906 C 25.898438 38.519531 26.871094 45.234375 27.996094 51.71875 C 28.425781 54.199219 28.613281 56.984375 29.371094 59.375 C 35.289062 59.871094 41.414062 59.613281 47.363281 59.609375 L 79.019531 59.445312 L 83.050781 59.566406 C 83.242188 56.828125 83.863281 54.054688 84.34375 51.351562 C 85.488281 44.921875 86.894531 38.515625 87.910156 32.066406 C 82.523438 32.644531 74.65625 32.160156 69.027344 32.171875 L 41.785156 32.074219 C 39.398438 32.050781 37.011719 32.214844 34.625 32.140625 Z M 78.222656 79.421875 C 76.847656 79.667969 75.933594 80.003906 75.097656 81.207031 C 74.507812 82.054688 74.386719 83.289062 74.582031 84.289062 C 74.75 85.140625 75.382812 86.125 75.851562 86.851562 C 76.613281 87.238281 78.269531 88.308594 79.128906 88.058594 C 80.84375 87.269531 82.132812 86.648438 82.824219 84.753906 C 83.214844 83.6875 83.238281 82.433594 82.734375 81.394531 C 82.3125 80.527344 81.492188 79.898438 80.585938 79.59375 C 79.851562 79.34375 78.988281 79.367188 78.222656 79.421875 Z M 31.667969 79.484375 C 30.335938 79.582031 29.507812 79.75 28.582031 80.808594 C 27.890625 81.597656 27.589844 82.574219 27.671875 83.613281 C 27.765625 84.839844 28.425781 86.039062 29.359375 86.828125 C 30.089844 87.449219 31.269531 87.945312 32.203125 88.140625 C 33.839844 87.484375 35.113281 86.953125 35.839844 85.214844 C 36.3125 84.09375 36.40625 82.757812 35.917969 81.621094 C 35.546875 80.75 34.859375 80.105469 33.976562 79.769531 C 33.359375 79.53125 32.308594 79.339844 31.667969 79.484375 Z M 31.667969 79.484375 "/>
</g>
</svg>
