<?xml version="1.0" encoding="utf-8" ?>
<svg xmlns="http://www.w3.org/2000/svg" xmlns:xlink="http://www.w3.org/1999/xlink" width="512" height="512" fill='#393D3F'>
	<path d="M462.248 32.0693C466.903 31.8229 471.142 32.9709 474.68 36.1162Q475.26 36.6313 475.787 37.2017Q476.313 37.772 476.78 38.3919Q477.247 39.0118 477.65 39.6751Q478.052 40.3383 478.387 41.0384Q478.722 41.7385 478.986 42.4684Q479.249 43.1983 479.439 43.9508Q479.629 44.7033 479.742 45.471Q479.856 46.2386 479.893 47.0138C480.099 50.842 479.022 54.4704 476.679 57.5111C474.715 60.0612 472.295 62.281 470.023 64.5545L459.9 74.6758L426.024 108.535L328.233 206.386L296.093 238.528C290.288 244.33 284.204 250.021 278.675 256.084C283.233 260.248 287.516 264.833 291.885 269.201L316.267 293.576L391.489 368.758L447.693 424.986L465.981 443.207C469.2 446.415 472.701 449.565 475.667 452.998C477.997 455.695 479.594 458.702 479.928 462.299Q480.008 463.1 480.008 463.905Q480.007 464.711 479.926 465.512Q479.845 466.313 479.683 467.102Q479.522 467.891 479.282 468.659Q479.042 469.428 478.727 470.169Q478.411 470.91 478.022 471.615Q477.634 472.32 477.176 472.983Q476.719 473.646 476.197 474.259C473.457 477.488 469.676 479.594 465.42 479.915C461.802 480.188 457.897 479.338 454.961 477.133C450.148 473.52 443.585 466.162 439.038 461.61L407.956 430.523L306.49 329.142L273.456 296.126C267.762 290.438 262.205 284.24 256.12 278.982L255.887 278.784C250.254 284.187 244.808 289.819 239.287 295.339L208.088 326.541L114.116 420.513L77.4065 457.218L65.5236 469.12C63.2106 471.436 60.941 473.871 58.4635 476.012C56.3996 477.795 54.2737 478.792 51.7061 479.644C50.4383 479.841 49.1479 479.978 47.863 479.975C43.5748 479.963 39.5185 478.095 36.5289 475.063C33.6002 472.092 32.0623 468.224 32.1014 464.057C32.139 460.057 33.4732 456.616 35.9912 453.531C38.4663 450.499 41.4369 447.795 44.2049 445.025L58.1573 431.075L102.871 386.364L187.953 301.222C203.03 286.141 217.963 270.87 233.259 256.012C228.028 250.17 222.061 244.726 216.509 239.172L183.999 206.653L84.2304 106.807L52.4474 75.0253L42.5101 65.0967C40.4019 62.9875 38.1565 60.9207 36.2753 58.6028C34.3506 56.2313 33.2875 53.5765 33.0237 50.5388C32.6266 45.9672 33.9821 41.5738 36.9986 38.0898C39.7832 34.8738 43.8478 33.1768 48.054 32.98Q48.7464 32.9416 49.4394 32.9646Q50.1324 32.9876 50.8207 33.0717Q51.509 33.1558 52.1872 33.3005Q52.8653 33.4451 53.5281 33.6491Q54.1908 33.8532 54.8329 34.115Q55.475 34.3768 56.0914 34.6943Q56.7079 35.0118 57.2938 35.3826Q57.8798 35.7534 58.4307 36.1745C60.9985 38.1576 63.235 40.6006 65.519 42.898L74.871 52.2666L108.692 86.0736L205.979 183.305L238.037 215.364C244.003 221.329 249.849 227.576 256.103 233.232C260.99 227.934 266.25 222.918 271.346 217.82L297.521 191.638L376.986 112.13L428.895 60.1978L445.011 44.072C447.985 41.0948 450.927 37.8257 454.168 35.1483C456.436 33.276 459.415 32.5299 462.248 32.0693Z"/>
</svg>
