<?xml version="1.0" encoding="utf-8" ?>
<svg xmlns="http://www.w3.org/2000/svg" xmlns:xlink="http://www.w3.org/1999/xlink" width="512" height="512" fill='#393D3F'>
	<path d="M0 251.555C0.0841051 251.407 0.170133 251.26 0.252315 251.111C1.08635 249.598 1.36265 247.792 2.09643 246.221C4.50311 241.067 9.34572 236.906 14.7584 235.229C20.7516 233.372 32.2003 234.169 38.843 234.172L63.8926 234.187L153.633 234.19L378.057 234.191L452.587 234.19C464.874 234.19 477.226 233.897 489.506 234.19C493.5 234.286 497.301 234.931 500.862 236.823C505.361 239.213 508.531 243.1 510.442 247.776C511.014 249.178 511.36 250.712 512 252.072L512 258.961C509.242 266.296 507.021 271.525 499.427 275.024C496.242 276.492 492.936 276.902 489.46 276.972C480.129 277.162 470.755 276.957 461.42 276.957L403.928 276.962L229.839 276.962L90.9535 276.96L45.7724 276.971C37.8436 276.976 29.84 277.198 21.9193 276.943C19.1707 276.855 16.389 276.555 13.8033 275.571C8.88679 273.699 4.18946 269.582 2.0054 264.751C1.29811 263.186 0.961322 260.834 0 259.478L0 251.555Z"/>
	<path d="M0 415.061C0.0352997 415.002 0.0716764 414.943 0.105899 414.883C1.02093 413.278 1.37585 411.421 2.14217 409.745C4.56375 404.45 9.48439 400.327 15.0499 398.709C21.1153 396.945 30.4366 397.733 36.9454 397.737L61.0909 397.753L153.328 397.756L378.31 397.753L453.692 397.759C465.73 397.764 477.859 397.415 489.887 397.754C493.83 397.866 497.605 398.585 501.082 400.52C507.359 404.013 509.863 409.252 512 415.802L512 422.672C511.271 424.367 510.777 426.148 510.01 427.826C507.708 432.863 503.781 436.828 498.623 438.92C495.661 440.121 492.376 440.57 489.199 440.676C480.546 440.966 471.818 440.715 463.157 440.712L413.139 440.71L261.647 440.709L102.562 440.708L50.7788 440.714C41.6476 440.721 32.4386 440.967 23.3172 440.69C19.719 440.58 16.1368 440.123 12.8084 438.68C8.20921 436.686 3.6702 432.581 1.81514 427.845C1.21688 426.317 0.865757 424.395 0 423.013L0 415.061Z"/>
	<path d="M0 87.9891C0.0827788 87.845 0.167453 87.702 0.248337 87.5568C1.04384 86.129 1.31041 84.4053 1.97986 82.9079C4.38123 77.5365 9.27537 73.3305 14.8802 71.6503C21.1731 69.7639 30.2077 70.5669 36.8744 70.5742L62.2395 70.591L157.422 70.5909L379.439 70.5934L452.991 70.5933C465.194 70.5931 477.493 70.248 489.686 70.5954C493.682 70.7092 497.536 71.438 501.061 73.3882C505.422 75.8002 508.559 79.5662 510.431 84.1572C511.024 85.6105 511.388 87.1575 512 88.5952L512 95.4238C509.517 102.421 506.745 107.952 499.713 111.322C496.46 112.882 492.951 113.367 489.375 113.472C481.423 113.706 473.401 113.469 465.442 113.467L417.337 113.472L270.6 113.473L107.696 113.471L57.7444 113.475L33.8233 113.488C29.303 113.489 24.6732 113.712 20.1738 113.312C18.0458 113.123 15.9816 112.776 13.9684 112.045C8.81972 110.175 4.13456 105.985 1.89625 100.955C1.22245 99.4406 0.924459 97.272 0 95.9466L0 87.9891Z"/>
</svg>
