<?xml version="1.0" encoding="utf-8" ?>
<svg xmlns="http://www.w3.org/2000/svg" xmlns:xlink="http://www.w3.org/1999/xlink" width="512" height="512" fill='#393D3F'>
	<path d="M0 0L512 0L512 126.805L512 131.697L512 512L0 512L0 33.0663L0 9.25375L0 0ZM0 33.0663L0 512L512 512L512 131.697C510.231 135.403 509.435 140.336 508.373 144.321L501.444 170.168L471.037 283.415L463.115 312.929C460.942 321.042 459.23 329.693 455.434 337.216Q454.718 338.624 453.909 339.981Q453.1 341.338 452.202 342.638Q451.304 343.937 450.321 345.174Q449.337 346.41 448.273 347.578Q447.209 348.745 446.069 349.839Q444.929 350.932 443.718 351.947Q442.507 352.961 441.23 353.892Q439.954 354.823 438.618 355.666Q437.475 356.406 436.289 357.077Q435.104 357.749 433.881 358.349Q432.658 358.949 431.402 359.475Q430.146 360.002 428.86 360.453Q427.575 360.904 426.265 361.278Q424.956 361.653 423.626 361.949Q422.297 362.245 420.952 362.462Q419.607 362.679 418.252 362.816C413.065 363.34 407.739 363.146 402.528 363.148L378.716 363.149L300.76 363.141L220.207 363.145L196.58 363.161C188.412 363.165 180.211 363.517 172.184 361.734C174.779 371.812 178.116 381.839 180.287 392.002C186.875 392.767 194.007 392.263 200.645 392.26L238.812 392.253L368.409 392.255L399.643 392.253C406.861 392.245 414.376 391.781 421.519 392.909Q423.108 393.165 424.68 393.515Q426.251 393.866 427.798 394.308Q429.346 394.751 430.865 395.285Q432.383 395.819 433.868 396.442Q435.352 397.066 436.796 397.776Q438.241 398.486 439.641 399.281Q441.041 400.076 442.391 400.952Q443.741 401.829 445.037 402.784Q446.147 403.602 447.215 404.472Q448.283 405.343 449.307 406.266Q450.331 407.188 451.309 408.159Q452.287 409.13 453.216 410.148Q454.145 411.166 455.023 412.229Q455.901 413.291 456.726 414.395Q457.551 415.499 458.321 416.642Q459.091 417.785 459.804 418.965Q460.516 420.144 461.171 421.357Q461.825 422.57 462.419 423.814Q463.013 425.058 463.545 426.329Q464.078 427.6 464.547 428.896Q465.017 430.192 465.422 431.509Q465.827 432.826 466.168 434.162Q466.508 435.497 466.783 436.848Q467.057 438.199 467.265 439.561Q467.465 440.91 467.599 442.267Q467.732 443.624 467.798 444.986Q467.863 446.348 467.861 447.711Q467.86 449.075 467.79 450.436Q467.721 451.798 467.584 453.155Q467.447 454.511 467.243 455.86Q467.039 457.208 466.769 458.544Q466.498 459.881 466.162 461.202Q465.826 462.523 465.424 463.826Q465.023 465.129 464.557 466.411Q464.092 467.693 463.563 468.95Q463.035 470.206 462.444 471.436Q461.854 472.665 461.204 473.863Q460.553 475.062 459.844 476.226Q459.135 477.391 458.37 478.519Q457.604 479.647 456.783 480.736Q455.955 481.837 455.073 482.895Q454.191 483.953 453.257 484.966Q452.324 485.979 451.341 486.945Q450.359 487.91 449.329 488.826Q448.3 489.741 447.226 490.604Q446.152 491.467 445.037 492.275Q443.922 493.084 442.767 493.836Q441.613 494.588 440.423 495.282Q439.233 495.976 438.01 496.609Q436.787 497.243 435.533 497.815Q434.28 498.387 433 498.896Q431.72 499.405 430.416 499.85Q429.113 500.294 427.788 500.674Q426.464 501.053 425.122 501.366Q423.781 501.679 422.425 501.925Q421.07 502.171 419.704 502.349C405.567 504.262 390.709 500.046 379.42 491.396Q378.341 490.575 377.303 489.702Q376.266 488.829 375.273 487.906Q374.28 486.982 373.335 486.01Q372.389 485.039 371.492 484.021Q370.596 483.004 369.751 481.944Q368.906 480.883 368.115 479.782Q367.324 478.681 366.588 477.542Q365.853 476.403 365.174 475.229Q364.496 474.055 363.877 472.849Q363.258 471.642 362.699 470.407Q362.14 469.171 361.644 467.91Q361.147 466.648 360.713 465.363Q360.28 464.079 359.911 462.774Q359.541 461.469 359.237 460.148Q358.933 458.827 358.695 457.492Q358.457 456.157 358.285 454.812C356.724 442.293 359.66 426.386 367.653 416.318C367.716 416.239 367.781 416.161 367.845 416.082L281.638 416.08C263.677 416.081 245.606 416.5 227.656 416.014Q228.534 417.2 229.311 418.454Q230.037 419.632 230.703 420.844Q231.369 422.057 231.975 423.301Q232.58 424.545 233.122 425.818Q233.665 427.091 234.144 428.389Q234.622 429.687 235.036 431.007Q235.449 432.327 235.797 433.667Q236.144 435.006 236.424 436.361Q236.704 437.716 236.917 439.083Q237.129 440.45 237.274 441.826Q237.418 443.202 237.493 444.583Q237.569 445.965 237.576 447.348Q237.583 448.732 237.521 450.114Q237.459 451.496 237.328 452.873Q237.198 454.251 236.999 455.62Q236.8 456.989 236.533 458.347Q236.266 459.704 235.932 461.047Q235.6 462.361 235.205 463.657Q234.809 464.954 234.35 466.229Q233.892 467.504 233.371 468.756Q232.85 470.007 232.269 471.231Q231.687 472.455 231.047 473.65Q230.406 474.844 229.708 476.005Q229.009 477.167 228.255 478.293Q227.5 479.419 226.691 480.506Q225.883 481.594 225.021 482.64Q224.16 483.687 223.249 484.69Q222.337 485.693 221.378 486.65Q220.419 487.607 219.413 488.516Q218.408 489.425 217.36 490.284Q216.311 491.143 215.222 491.949Q214.132 492.755 213.005 493.507Q211.877 494.259 210.714 494.955Q209.554 495.655 208.36 496.297Q207.166 496.939 205.941 497.52Q204.717 498.102 203.465 498.621Q202.213 499.141 200.937 499.597Q199.66 500.054 198.363 500.446Q197.065 500.838 195.75 501.165Q194.435 501.492 193.104 501.753Q191.774 502.014 190.433 502.209Q189.091 502.403 187.742 502.53Q186.392 502.657 185.038 502.717Q183.684 502.777 182.329 502.769Q180.973 502.761 179.62 502.685Q178.267 502.61 176.919 502.467Q175.571 502.324 174.232 502.114Q172.892 501.904 171.566 501.628Q170.239 501.351 168.927 501.009Q167.61 500.669 166.311 500.265Q165.011 499.862 163.734 499.394Q162.456 498.927 161.203 498.398Q159.95 497.868 158.724 497.278Q157.498 496.688 156.303 496.038Q155.108 495.388 153.946 494.68Q152.784 493.973 151.658 493.209Q150.532 492.445 149.446 491.626Q148.359 490.808 147.313 489.937Q146.268 489.067 145.267 488.146Q144.265 487.225 143.31 486.256Q142.355 485.287 141.449 484.272Q140.543 483.257 139.688 482.199Q138.833 481.141 138.03 480.042Q137.228 478.944 136.481 477.807Q135.734 476.67 135.043 475.498Q134.359 474.321 133.733 473.112Q133.107 471.904 132.542 470.665Q131.976 469.427 131.471 468.163Q130.967 466.899 130.525 465.611Q130.084 464.324 129.706 463.016Q129.328 461.708 129.014 460.384Q128.701 459.059 128.453 457.721Q128.204 456.382 128.022 455.033Q127.84 453.684 127.724 452.328Q127.608 450.972 127.559 449.611Q127.51 448.251 127.528 446.89Q127.545 445.529 127.629 444.17Q127.714 442.812 127.864 441.459Q128.015 440.106 128.232 438.762Q128.449 437.418 128.732 436.087Q129.014 434.755 129.362 433.439C133.4 418.073 143.064 406.97 156.551 399.042C154.715 390.195 151.497 380.188 149.067 371.322L132.737 312.25L82.0598 123.961L66.2331 64.9049C63.4127 54.3867 60.2136 43.8431 57.8648 33.219C52.9232 32.7496 47.7076 33.0727 42.7293 33.0736L14.9623 33.0919C9.99537 33.1016 4.95722 33.3217 0 33.0663ZM111.085 141.201C114.712 155.482 118.893 169.661 122.834 183.861L144.277 261.66L156.098 304.904C157.791 311.095 159.735 320.388 162.17 326.013Q162.537 326.866 162.971 327.688Q163.405 328.509 163.903 329.294Q164.401 330.078 164.959 330.82Q165.518 331.562 166.135 332.257Q166.751 332.952 167.42 333.596Q168.09 334.24 168.809 334.828Q169.528 335.417 170.291 335.946Q171.055 336.475 171.858 336.942C175.288 338.959 179.145 340.02 183.105 340.259C188.772 340.602 194.571 340.32 200.256 340.307L230.108 340.305L327.314 340.305L386.697 340.313L403.415 340.32C408.385 340.32 413.993 340.791 418.826 339.534Q419.403 339.383 419.971 339.204Q420.54 339.024 421.099 338.817Q421.658 338.609 422.206 338.375Q422.754 338.14 423.289 337.878Q423.825 337.616 424.347 337.329Q424.869 337.041 425.376 336.727Q425.884 336.414 426.375 336.076Q426.866 335.738 427.339 335.375Q427.813 335.013 428.268 334.628Q428.723 334.243 429.159 333.836Q429.594 333.429 430.009 333Q430.423 332.572 430.816 332.124Q431.209 331.676 431.58 331.208Q431.95 330.741 432.297 330.256Q432.644 329.771 432.966 329.27Q433.288 328.768 433.585 328.251C436.8 322.588 440.627 305.071 442.58 297.818C450.692 265.823 459.575 233.978 468.067 202.079L478.705 162.111C480.546 155.189 482.176 148.136 484.279 141.297C480.909 141.509 477.483 141.364 474.106 141.351L457.439 141.344L403.113 141.347L234.156 141.345L144.897 141.346L121.736 141.363C118.339 141.369 114.398 141.84 111.085 141.201ZM0 0L0 9.25375L46.0772 9.2383C52.2542 9.23869 63.9105 8.63487 69.6491 9.72344C71.9668 10.1631 73.5739 11.0619 75.2758 12.6917C76.7255 14.08 77.5948 15.6635 78.2427 17.5394C80.0919 22.8934 81.3381 28.6049 82.8116 34.0772L91.2232 65.2112L100.544 99.5924C102.107 105.365 104.009 111.24 105.216 117.085C116.776 117.738 128.6 117.259 140.186 117.258L204.997 117.254L405.161 117.256L469.712 117.257L489.1 117.24C492.805 117.229 496.667 117.014 500.351 117.37C503.615 117.686 506.546 118.613 508.772 121.171C510.312 122.941 510.862 124.838 512 126.805L512 0L0 0ZM409.937 416.338C400.958 417.466 393.465 421.073 387.846 428.356Q387.373 428.978 386.931 429.622Q386.489 430.266 386.08 430.93Q385.67 431.595 385.293 432.279Q384.916 432.963 384.573 433.665Q384.231 434.367 383.923 435.085Q383.615 435.802 383.342 436.534Q383.07 437.266 382.833 438.011Q382.597 438.755 382.398 439.51Q382.198 440.265 382.036 441.029Q381.873 441.793 381.749 442.564Q381.624 443.335 381.537 444.111Q381.45 444.888 381.402 445.667Q381.353 446.447 381.343 447.228Q381.332 448.008 381.36 448.789Q381.388 449.569 381.454 450.348Q381.52 451.126 381.624 451.9Q381.729 452.681 381.873 453.456Q382.017 454.231 382.199 454.998Q382.382 455.765 382.602 456.522Q382.823 457.278 383.081 458.023Q383.338 458.768 383.633 459.499Q383.928 460.23 384.259 460.946Q384.589 461.661 384.955 462.359Q385.321 463.057 385.722 463.736Q386.122 464.415 386.556 465.074Q386.99 465.732 387.456 466.367Q387.922 467.003 388.419 467.615Q388.916 468.227 389.443 468.813Q389.97 469.399 390.525 469.958Q391.081 470.517 391.664 471.048Q392.246 471.579 392.855 472.08Q393.463 472.581 394.096 473.051C400.668 477.942 408.387 479.744 416.476 479.04C425.219 477.962 432.726 473.623 438.143 466.671C443.268 460.094 445.317 451.496 444.227 443.279Q444.122 442.511 443.98 441.749Q443.838 440.988 443.658 440.234Q443.479 439.48 443.262 438.736Q443.046 437.992 442.793 437.26Q442.539 436.527 442.251 435.808Q441.962 435.089 441.638 434.385Q441.314 433.681 440.956 432.994Q440.598 432.307 440.206 431.638Q439.814 430.97 439.39 430.321Q438.966 429.673 438.51 429.046Q438.055 428.419 437.569 427.815Q437.083 427.212 436.568 426.633Q436.053 426.054 435.51 425.501Q434.967 424.949 434.397 424.423Q433.827 423.898 433.232 423.401Q432.638 422.905 432.019 422.438C426.081 417.951 417.838 415.338 410.374 416.273C410.228 416.291 410.083 416.316 409.937 416.338ZM179.607 416.335C170.681 417.437 163.209 420.995 157.583 428.201Q157.102 428.826 156.653 429.474Q156.204 430.122 155.787 430.791Q155.37 431.46 154.987 432.149Q154.604 432.838 154.255 433.545Q153.906 434.252 153.593 434.975Q153.279 435.699 153.002 436.437Q152.724 437.175 152.484 437.925Q152.243 438.676 152.039 439.438Q151.836 440.199 151.67 440.97Q151.505 441.741 151.377 442.519Q151.25 443.297 151.161 444.08Q151.072 444.864 151.021 445.65Q150.971 446.437 150.96 447.225Q150.948 448.014 150.976 448.802Q151.003 449.589 151.07 450.375Q151.136 451.161 151.241 451.942Q151.342 452.705 151.481 453.462Q151.62 454.219 151.795 454.969Q151.97 455.718 152.182 456.458Q152.394 457.198 152.642 457.927Q152.889 458.656 153.172 459.372Q153.455 460.088 153.772 460.789Q154.09 461.49 154.441 462.175Q154.792 462.86 155.177 463.527Q155.561 464.194 155.977 464.841Q156.394 465.489 156.841 466.115Q157.289 466.742 157.766 467.345Q158.244 467.949 158.75 468.529Q159.257 469.108 159.791 469.663Q160.325 470.217 160.885 470.745Q161.446 471.272 162.031 471.772Q162.617 472.272 163.226 472.742C169.862 477.834 177.702 479.78 185.972 479.037Q186.74 478.951 187.504 478.827Q188.267 478.703 189.023 478.542Q189.779 478.381 190.527 478.183Q191.274 477.986 192.011 477.752Q192.748 477.517 193.472 477.248Q194.197 476.978 194.907 476.673Q195.618 476.368 196.313 476.028Q197.007 475.689 197.685 475.316Q198.362 474.943 199.02 474.537Q199.678 474.132 200.316 473.694Q200.953 473.257 201.569 472.789Q202.184 472.321 202.776 471.823Q203.368 471.326 203.935 470.8Q204.501 470.274 205.042 469.721Q205.582 469.168 206.095 468.589Q206.607 468.01 207.091 467.407Q207.584 466.795 208.045 466.159Q208.507 465.523 208.936 464.864Q209.365 464.206 209.76 463.527Q210.156 462.848 210.517 462.15Q210.878 461.452 211.204 460.737Q211.53 460.022 211.819 459.291Q212.109 458.561 212.361 457.817Q212.614 457.073 212.829 456.317Q213.044 455.561 213.221 454.795Q213.399 454.03 213.537 453.256Q213.676 452.483 213.775 451.703Q213.875 450.924 213.936 450.14Q213.996 449.357 214.018 448.571Q214.039 447.786 214.021 447Q214.003 446.214 213.946 445.431Q213.888 444.647 213.792 443.867Q213.702 443.091 213.574 442.32Q213.446 441.549 213.279 440.785Q213.113 440.022 212.909 439.267Q212.704 438.513 212.463 437.77Q212.221 437.026 211.943 436.296Q211.665 435.566 211.351 434.85Q211.037 434.135 210.687 433.436Q210.338 432.737 209.954 432.056Q209.57 431.375 209.153 430.714Q208.736 430.053 208.286 429.414Q207.836 428.775 207.356 428.159Q206.875 427.543 206.364 426.951Q205.853 426.36 205.313 425.795Q204.774 425.23 204.206 424.692Q203.639 424.154 203.046 423.645Q202.453 423.137 201.835 422.658C195.914 418.08 187.541 415.282 180.017 416.269C179.88 416.287 179.743 416.313 179.607 416.335Z"/>
</svg>
